<?xml version="1.0" standalone="no"?>
<!DOCTYPE svg PUBLIC "-//W3C//DTD SVG 20010904//EN"
 "http://www.w3.org/TR/2001/REC-SVG-20010904/DTD/svg10.dtd">
<svg version="1.0" xmlns="http://www.w3.org/2000/svg"
 width="700.000000pt" height="700.000000pt" viewBox="0 0 700.000000 700.000000"
 preserveAspectRatio="xMidYMid meet">
<metadata>
Created by potrace 1.11, written by Peter Selinger 2001-2013
</metadata>
<g transform="translate(0.000000,700.000000) scale(0.100000,-0.100000)"
fill="#000000" stroke="none">
<path d="M3007 6964 c-1 -1 -54 -4 -117 -8 -63 -3 -126 -8 -140 -10 -35 -7
-100 -17 -133 -21 -16 -2 -70 -16 -120 -29 -361 -100 -615 -299 -825 -648
-171 -284 -361 -830 -407 -1168 -3 -25 -8 -56 -10 -70 -9 -48 -16 -166 -16
-266 1 -282 91 -570 254 -814 45 -66 151 -207 167 -220 6 -5 156 -199 205
-265 137 -185 183 -279 208 -430 30 -175 6 -371 -70 -575 -90 -243 -194 -352
-351 -368 -118 -13 -190 15 -234 93 -20 35 -23 53 -22 135 1 52 9 124 18 160
9 36 19 76 22 90 2 14 7 32 10 40 21 56 73 245 68 249 -3 3 -214 6 -469 6
-456 0 -464 0 -468 -20 -2 -11 -30 -108 -61 -215 -32 -107 -59 -203 -61 -212
-2 -9 -13 -50 -24 -90 -25 -90 -56 -247 -71 -352 -10 -79 -15 -319 -7 -334 3
-4 8 -25 11 -47 17 -103 59 -199 124 -282 42 -52 156 -135 214 -155 18 -6 38
-14 43 -18 11 -8 124 -39 164 -46 14 -3 31 -6 38 -9 64 -22 572 -27 698 -7 44
8 94 15 110 18 124 18 265 64 388 126 316 161 544 464 744 986 126 329 217
670 239 887 3 33 8 71 10 85 8 49 5 306 -5 375 -18 130 -23 148 -79 315 -69
207 -181 385 -421 670 -104 123 -234 305 -267 375 -50 105 -67 183 -67 315 0
104 3 127 37 244 87 297 172 423 317 471 117 39 234 12 285 -64 57 -87 40
-243 -58 -531 -27 -80 -51 -152 -53 -162 -3 -15 33 -16 470 -16 l474 -1 16 57
c9 31 40 136 70 232 29 96 55 184 58 195 2 11 14 54 25 95 31 111 57 242 69
345 9 76 9 276 1 335 -29 198 -131 347 -291 428 -72 37 -221 86 -290 96 -27 4
-59 9 -70 12 -44 9 -342 24 -350 18z"/>
<path d="M4379 5742 c-9 -2 -26 -43 -46 -110 -50 -172 -131 -443 -147 -492
-18 -54 -107 -349 -112 -370 -2 -8 -24 -82 -49 -165 -43 -138 -67 -219 -115
-380 -22 -76 -35 -119 -278 -925 -111 -366 -226 -748 -257 -850 -31 -102 -58
-192 -60 -200 -8 -27 -42 -143 -110 -365 -36 -121 -68 -224 -69 -230 -2 -5 -5
-17 -9 -25 -6 -17 -137 -455 -172 -575 -13 -44 -60 -201 -105 -350 -45 -148
-88 -290 -95 -315 -38 -129 -69 -231 -86 -284 -10 -33 -19 -63 -19 -67 0 -4
220 -8 489 -8 l489 -1 10 37 c5 21 83 279 171 573 89 294 164 542 165 550 10
39 258 856 262 859 2 3 100 6 217 7 259 2 380 11 547 40 95 17 217 49 270 71
352 146 549 366 735 821 66 164 119 327 315 982 172 572 229 782 245 893 3 27
9 59 11 70 3 12 7 87 9 167 6 258 -37 368 -199 497 -46 38 -214 93 -341 113
-38 6 -81 13 -95 15 -67 12 -331 18 -916 19 -352 0 -647 0 -655 -2z m997
-1027 c26 -4 57 -13 70 -21 94 -62 67 -266 -114 -859 -87 -282 -119 -371 -183
-502 -75 -154 -157 -228 -269 -247 -19 -3 -91 -6 -160 -5 -69 0 -137 0 -152 0
-34 -2 -34 -1 -4 96 36 116 72 238 100 333 13 47 55 184 91 305 37 121 77 254
89 295 154 520 181 602 197 609 23 8 274 6 335 -4z"/>
</g>
</svg>
